<?xml version="1.0" encoding="UTF-8"?>
<svg xmlns="http://www.w3.org/2000/svg" width="132" height="30" viewBox="0 0 132 30" fill="none">
  <path d="M56.1458 0.639707C58.7066 0.051009 61.4295 -0.0057539 63.9854 0.633219C65.2131 0.951083 66.2542 1.69709 67.3895 2.23065C67.4106 2.27282 67.4543 2.35553 67.4754 2.39607C69.1475 3.4567 70.526 4.95683 71.5639 6.63535C71.6077 6.66616 71.692 6.72779 71.7342 6.7586C72.0439 7.44136 72.4234 8.09331 72.6748 8.80202L72.7526 8.79229C72.824 9.06961 72.9051 9.3453 72.9781 9.62425L73.0543 9.6129C73.111 9.84967 73.171 10.0864 73.2359 10.3248C73.9025 12.7023 73.8846 15.2226 73.5586 17.6552C73.4046 18.252 73.2456 18.8472 73.0754 19.4408C72.9894 19.6467 72.9051 19.8543 72.8224 20.0635C72.6796 20.4187 72.5321 20.7738 72.3975 21.1339L72.2337 21.1404C72.2629 21.2182 72.3196 21.3739 72.3488 21.4517L72.1039 21.4371C72.1169 21.5215 72.1445 21.6901 72.1574 21.7745L72.0326 21.7793C71.7796 22.2788 71.4925 22.7605 71.2298 23.2535C71.1941 23.247 71.126 23.2324 71.0919 23.2259C70.8487 23.7157 70.4773 24.1211 70.1335 24.5412C69.6437 25.0926 69.1183 25.6099 68.5766 26.111C67.7982 26.6884 67.0327 27.303 66.131 27.6793L66.1213 27.8317C66.045 27.8042 65.8942 27.7523 65.818 27.7247L65.8083 27.8917C65.432 28.0312 65.0606 28.1788 64.6828 28.3166L64.673 28.3896C64.3779 28.4723 64.0843 28.5599 63.7924 28.6475C61.7328 29.2135 59.5434 29.2881 57.4497 28.8729C57.2259 28.821 57.0037 28.7723 56.7799 28.7286C56.5107 28.6442 56.2399 28.5648 55.9739 28.4788C55.8977 28.461 55.7453 28.422 55.669 28.4042C55.5296 28.3556 55.2506 28.2615 55.1095 28.2128L55.0901 28.0442C55.0187 28.0734 54.8744 28.1301 54.803 28.1577C54.79 28.0896 54.7641 27.9517 54.7511 27.8836L54.4722 28.0101C54.4673 27.9696 54.4592 27.8901 54.4543 27.8496C53.8948 27.6128 53.3645 27.3144 52.8261 27.0354C52.831 27.0014 52.8391 26.9333 52.8439 26.8992C51.7703 26.377 50.9773 25.4623 50.1502 24.632C49.8794 24.3709 49.6718 24.0547 49.495 23.7271C49.4399 23.7303 49.3312 23.7352 49.2761 23.7384C49.2696 23.6087 49.2582 23.3492 49.2517 23.2194C49.1771 23.2308 49.0279 23.2535 48.9533 23.2665C48.9468 23.1335 48.9306 22.8675 48.9225 22.7362C48.869 22.7427 48.762 22.7572 48.7068 22.7637C48.4165 22.235 48.1068 21.7128 47.8878 21.1485L47.7419 21.1193C47.7694 21.0463 47.8262 20.902 47.8554 20.829C47.7873 20.8192 47.6543 20.7982 47.5878 20.7884C47.617 20.7155 47.6738 20.5695 47.703 20.4965L47.544 20.4787C47.4856 20.3343 47.3705 20.0457 47.3137 19.9013C47.3137 19.8673 47.3137 19.7975 47.3137 19.7635C47.1386 19.3402 46.9975 18.9039 46.8645 18.4677C46.3212 16.6254 46.3358 14.6744 46.4834 12.7769C46.5466 11.6871 46.8986 10.646 47.1937 9.60317L47.3218 9.60154C47.3186 9.48153 47.3121 9.24476 47.3089 9.12637L47.45 9.13448C47.5229 8.85716 47.6057 8.58308 47.6803 8.30738L47.8619 8.31063C47.8343 8.2344 47.7792 8.08196 47.7516 8.00573C47.7889 8.00249 47.8635 7.99438 47.9024 7.99114C48.097 7.54678 48.3079 7.1089 48.5333 6.67914C48.5884 6.68725 48.7003 6.70508 48.7555 6.71319C48.7652 6.58021 48.783 6.31424 48.7928 6.17963C48.8658 6.19261 49.0133 6.21856 49.0863 6.23153C49.0944 6.09855 49.109 5.83258 49.1171 5.69959C49.169 5.70608 49.2712 5.71906 49.3215 5.72554C50.0432 4.51247 51.1346 3.59942 52.166 2.66366C52.2504 2.65069 52.4223 2.62312 52.5082 2.61014C52.5098 2.555 52.5131 2.44635 52.5147 2.39121C53.225 2.04091 53.8705 1.5706 54.6116 1.28355C54.6165 1.24462 54.6262 1.17002 54.6311 1.1311L54.9409 1.22678C54.9409 1.16191 54.9425 1.03218 54.9425 0.967306C55.0203 0.993254 55.1744 1.04515 55.2506 1.0711L55.2733 0.907296C55.5636 0.821343 55.8555 0.730526 56.1458 0.639707ZM57.1319 2.43013C56.9713 2.48527 56.8107 2.54041 56.6534 2.59879C56.428 2.67826 56.2042 2.76097 55.982 2.8453C55.6917 2.96207 55.3998 3.07883 55.1063 3.19236L55.1128 3.25236C54.7852 3.39508 54.4592 3.54103 54.1316 3.68213C54.13 3.72105 54.1267 3.79889 54.1235 3.83781C53.7635 4.03405 53.4326 4.27893 53.1407 4.56598L52.9883 4.60004C51.9812 5.51471 51.0908 6.53642 50.2751 7.62462C50.2605 7.71706 50.2297 7.90194 50.2134 7.99438C50.1567 7.99762 50.0432 8.00249 49.9864 8.00573C49.8372 8.37225 49.6799 8.73715 49.5323 9.10529L49.4739 9.12799C49.3685 9.42639 49.2598 9.7248 49.1479 10.0232C49.0328 10.3476 48.9209 10.6735 48.8122 11.0011C48.2981 13.1175 48.2641 15.3393 48.6565 17.48C48.8122 18.1482 48.9468 18.8326 49.2696 19.4456C49.2566 19.4991 49.2307 19.6078 49.2161 19.6613L49.3604 19.6889C49.6085 20.417 50.0529 21.0512 50.481 21.6836C50.5881 21.8328 50.6951 21.9837 50.8021 22.1345C51.5757 23.2227 52.539 24.1649 53.5867 24.9855C53.6872 25.0034 53.8883 25.0358 53.9889 25.052C53.9824 25.1023 53.9694 25.2012 53.9629 25.2515C54.3895 25.4526 54.7965 25.6943 55.1906 25.957C55.4274 26.0413 55.6609 26.124 55.9009 26.2067L55.9269 26.3657C55.9804 26.3543 56.0891 26.3316 56.1426 26.3202C56.4588 26.4565 56.7799 26.5895 57.1027 26.716C58.486 27.0809 59.9278 27.0436 61.3452 26.9917C62.1269 26.9673 62.9134 26.8343 63.627 26.5051C63.6692 26.4954 63.7535 26.4792 63.7973 26.4711C63.9351 26.4192 64.2124 26.3138 64.3519 26.2619L64.3616 26.0964C64.4346 26.1256 64.579 26.1856 64.6503 26.2148C64.6584 26.1759 64.673 26.0981 64.6795 26.0591C65.1077 25.8418 65.5374 25.6278 65.9721 25.4267C65.9688 25.3715 65.9591 25.2612 65.9542 25.2061C66.084 25.1964 66.3418 25.1769 66.4699 25.1656C66.4667 25.1153 66.4618 25.0164 66.4586 24.9661C68.0479 23.9298 69.2302 22.3778 70.2762 20.816C70.3719 20.5987 70.4708 20.3814 70.5681 20.1657C70.6087 20.1576 70.6897 20.1413 70.7319 20.1349C70.7027 20.0635 70.6427 19.9208 70.6135 19.8494L70.7822 19.8381C71.0287 19.1748 71.2784 18.5115 71.4504 17.8239C71.8769 16.0042 72.0001 14.1003 71.6012 12.2628C71.5428 12.0082 71.4909 11.752 71.4422 11.4974C71.3644 11.2168 71.293 10.9346 71.2217 10.6557C71.1098 10.3248 70.98 9.99888 70.8389 9.67939C70.8519 9.62263 70.8746 9.5091 70.886 9.45234H70.68C70.68 9.33071 70.68 9.09069 70.68 8.96906L70.5081 8.9723C70.5033 8.89446 70.4919 8.74201 70.487 8.66579C70.2373 8.29117 70.0021 7.90843 69.7637 7.52731C69.4491 7.07322 69.1199 6.62724 68.7566 6.21045L68.7177 6.05638C67.9749 5.30064 67.2014 4.54977 66.2964 3.99026C66.2964 3.95945 66.2997 3.89944 66.3013 3.86863C66.0953 3.75835 65.8958 3.64969 65.6947 3.53941C65.3461 3.34642 64.9909 3.16641 64.6406 2.98153C64.5855 2.9718 64.4768 2.95396 64.4233 2.94585C63.7113 2.59717 62.9442 2.39769 62.1836 2.19497C60.5181 1.84954 58.752 1.88684 57.1319 2.43013Z" fill="white"></path>
  <path d="M8.3565 0.726104C10.4745 0.216872 12.6996 0.310933 14.8241 0.729346C15.3317 0.894765 15.8377 1.06343 16.3469 1.22723L16.3404 1.36021C16.4102 1.35859 16.548 1.35535 16.6177 1.35372C16.8286 1.47698 17.0394 1.60023 17.2502 1.72348C17.5924 1.91485 17.9427 2.08838 18.3027 2.24407C18.2963 2.29272 18.2833 2.39165 18.2768 2.44192C18.366 2.45814 18.5411 2.49057 18.6303 2.50679C19.1671 2.99494 19.8369 3.37767 20.1986 4.03124C20.3056 4.32478 20.2424 4.64751 20.2521 4.95565C19.9991 5.07566 19.7575 5.25891 19.4704 5.28324C19.065 5.28486 18.7552 4.98484 18.4309 4.78374L18.3092 4.73184C17.6086 4.14152 16.8675 3.57877 16.0096 3.23658L16.0209 3.10522C15.9398 3.12306 15.7777 3.15874 15.6966 3.17658L15.6787 3.03062C15.5393 2.98359 15.2619 2.88791 15.1225 2.83925C15.0446 2.82304 14.8889 2.7906 14.8095 2.77438C14.6457 2.71275 14.4803 2.65437 14.3148 2.59761C12.6217 2.15 10.8135 2.16136 9.11711 2.58464C8.90466 2.65437 8.69383 2.72573 8.483 2.79871C8.38245 2.8052 8.17973 2.81655 8.07918 2.82141L8.06296 3.03873C7.98836 3.00629 7.84241 2.94467 7.76943 2.91385C7.76294 2.97386 7.74996 3.09711 7.74348 3.15874C7.68347 3.14739 7.56346 3.12468 7.50346 3.11495C7.27803 3.25118 7.05423 3.39065 6.82718 3.52525C6.05847 4.06854 5.42761 4.7805 4.87783 5.53786C4.76593 5.95951 4.65565 6.38117 4.53078 6.79958C4.49185 7.53748 4.66214 8.26079 4.87459 8.96139C5.28976 9.81281 5.93197 10.5556 6.76232 11.0259C6.76718 11.0599 6.77853 11.1313 6.7834 11.167C7.19532 11.3324 7.59914 11.5157 7.99809 11.7135C8.0954 11.7168 8.29325 11.7232 8.39218 11.7265L8.40029 11.8984C8.5203 11.8951 8.7587 11.8854 8.87871 11.8806L8.88357 12.0476C8.9825 12.0541 9.18035 12.0654 9.27928 12.0719C9.44632 12.1352 9.61337 12.2 9.78041 12.2633C10.2718 12.3963 10.7664 12.5179 11.2594 12.6444C11.5822 12.7239 11.9033 12.8114 12.226 12.8942C12.4385 12.9542 12.6525 13.0125 12.8682 13.0709C13.8397 13.3255 14.8516 13.4391 15.789 13.8186C15.8863 13.8218 16.0793 13.8315 16.1766 13.8348L16.1864 14.0051C16.3064 14.0018 16.5464 13.9937 16.668 13.9888L16.6631 14.1251C16.9372 14.1948 17.2097 14.2726 17.4838 14.3456C17.487 14.3716 17.4935 14.4251 17.4967 14.451C17.7627 14.5256 18.0287 14.6051 18.2963 14.6813L18.2979 14.7494C19.7072 15.3317 20.8473 16.4961 21.5982 17.8032C21.7344 18.2849 21.8641 18.7665 21.9971 19.2498C22.1398 20.7954 22.0409 22.4106 21.3695 23.8313C20.8538 24.7995 20.0575 25.5714 19.2693 26.3142C19.1801 26.3223 19.005 26.3369 18.9174 26.3434C18.9239 26.3953 18.9385 26.4958 18.9466 26.5461C18.4033 26.8672 17.8876 27.2354 17.3183 27.5111L17.3021 27.5613C17.1626 27.6181 16.8837 27.7349 16.7459 27.7932C16.6875 27.7819 16.5739 27.7624 16.5172 27.7527L16.501 27.9035C16.3128 27.9489 16.1231 27.9992 15.9366 28.0511C15.7793 28.1095 15.622 28.1695 15.4647 28.2327C15.0754 28.3333 14.6862 28.4403 14.3002 28.5555C12.2552 28.8182 10.1599 28.862 8.13919 28.3998C7.76618 28.2846 7.39318 28.176 7.02017 28.0706C6.69096 27.9603 6.36174 27.8484 6.03252 27.7413C5.89467 27.6992 5.6206 27.6165 5.48275 27.5743L5.46653 27.4154C5.39355 27.4381 5.24597 27.4835 5.17137 27.5062C5.16164 27.4446 5.14218 27.3213 5.13407 27.2597C5.05623 27.2808 4.90216 27.3229 4.82594 27.344L4.82431 27.1997C4.52591 27.0537 4.23075 26.9061 3.93397 26.7586C3.44744 26.4277 2.93659 26.1309 2.38843 25.912C2.39654 25.8617 2.41276 25.7596 2.42087 25.7093C2.32194 25.6914 2.12571 25.6558 2.02678 25.6395C1.61972 25.2503 1.09914 24.9487 0.831545 24.4378C0.622339 23.9756 0.81695 23.4745 1.07805 23.0804C1.23699 23.0772 1.55809 23.0707 1.71865 23.0674C2.27167 23.4275 2.80198 23.8248 3.37608 24.1556C3.3696 24.201 3.35662 24.2935 3.35014 24.3405C3.44258 24.36 3.62746 24.4005 3.72152 24.4216C4.50969 24.9763 5.40166 25.3655 6.28552 25.7385L6.30498 25.8942C6.37634 25.8666 6.52067 25.8098 6.59365 25.7806C6.59852 25.8212 6.60987 25.9007 6.61636 25.9412C6.92125 26.0466 7.22614 26.1585 7.53103 26.2688C7.60725 26.2882 7.75807 26.3272 7.8343 26.345C8.04999 26.4066 8.26731 26.4666 8.48462 26.5266C8.76032 26.6012 9.03602 26.6726 9.31172 26.7505C10.4145 27.0018 11.5497 27.0343 12.6736 26.924C13.3337 26.7926 13.9986 26.6937 14.6538 26.5348C14.8598 26.465 15.0641 26.3969 15.2701 26.3272C15.3203 26.3272 15.4225 26.3256 15.4728 26.3239C15.9577 26.0872 16.4426 25.8471 16.9259 25.6055C16.9616 25.5633 17.0345 25.4774 17.0718 25.4352C18.1081 24.926 18.9644 24.0827 19.5385 23.0853C19.571 23.0853 19.6374 23.0853 19.6715 23.0869C19.9018 22.5923 20.2245 22.1138 20.244 21.5527C20.2943 20.7921 20.304 20.025 20.2051 19.2693C20.0997 18.606 19.5385 18.1746 19.1071 17.7156C18.6725 17.2567 18.1811 16.8545 17.6394 16.5285C17.2859 16.3712 16.934 16.2123 16.5772 16.0663C16.3631 15.9706 16.149 15.8733 15.9366 15.7776C15.8961 15.7825 15.815 15.7922 15.7744 15.7987C15.5036 15.6901 15.2328 15.5846 14.9635 15.476C14.8549 15.4646 14.7446 15.4517 14.636 15.4419C14.0051 15.2311 13.3645 15.0478 12.7109 14.9214C12.2147 14.8111 11.7184 14.7089 11.2189 14.61C11.0016 14.5565 10.7843 14.5062 10.567 14.4591C10.2961 14.3748 10.0269 14.2937 9.75932 14.2045C9.67986 14.1899 9.52092 14.1607 9.44308 14.1462C9.01656 13.9937 8.59004 13.8526 8.16189 13.7115C7.93647 13.6288 7.71266 13.5429 7.48886 13.4601C7.3056 13.4018 7.12234 13.3466 6.93909 13.2947L6.93584 13.1309C6.858 13.1553 6.70393 13.2072 6.62609 13.2331L6.60663 12.985C6.5304 13.0077 6.37958 13.0498 6.30336 13.0709L6.26443 12.9185C5.94333 12.7693 5.62546 12.6168 5.30435 12.4692C5.31084 12.4125 5.32544 12.299 5.33192 12.2422C5.24435 12.2309 5.06758 12.2098 4.98 12.2C4.43996 11.6357 3.79125 11.154 3.42636 10.4453C3.39068 10.4388 3.3177 10.4242 3.28202 10.4161C2.54899 9.0587 2.46141 7.44667 2.73711 5.95141C2.82793 5.21351 3.27553 4.59886 3.608 3.95502C3.6453 3.94691 3.71665 3.9307 3.75395 3.92096C4.09128 3.28524 4.66052 2.83276 5.16326 2.33326L5.3076 2.28948C5.73412 1.94891 6.18821 1.64726 6.65041 1.35859C6.72177 1.35697 6.86611 1.35535 6.93746 1.35372L6.9472 1.23047C7.37534 1.09424 7.79862 0.94666 8.22676 0.813676L8.3565 0.726104Z" fill="white"></path>
  <path d="M26.7906 0.715941C27.8464 0.386724 28.9606 0.497006 30.0488 0.490519C32.05 0.497006 34.0496 0.443486 36.0493 0.467812C38.2322 0.475921 40.4167 0.399698 42.5963 0.563495C42.7666 1.063 42.7504 1.58845 42.5914 2.08957C41.7773 2.2858 40.9421 2.39122 40.1053 2.34419C37.5672 2.23553 35.0276 2.28581 32.4895 2.26472C31.2083 2.28581 29.9093 2.19499 28.654 2.50799C28.5584 2.58421 28.4627 2.66205 28.3686 2.74151C28.2113 5.16604 28.294 7.59706 28.2762 10.0248C28.3102 11.1179 28.2081 12.2353 28.5048 13.3008C28.7043 13.3511 28.9038 13.4062 29.1017 13.4662C31.8457 13.6462 34.5994 13.5132 37.3483 13.5489C38.6198 13.5327 39.9155 13.4808 41.1464 13.8619C41.2729 14.3793 41.1902 14.8982 40.8075 15.2858C39.3576 15.6085 37.8591 15.5453 36.3833 15.5518C34.2686 15.5599 32.1538 15.5372 30.039 15.5631C29.4649 15.5615 28.8908 15.6313 28.3362 15.7805C28.2373 18.9364 28.2648 22.0956 28.3021 25.2531C28.3362 25.7089 28.2324 26.3608 28.7692 26.5651C29.2979 26.6981 29.8509 26.69 30.3926 26.7306C33.795 26.7273 37.1991 26.7062 40.6015 26.7387C41.2892 26.7565 41.9963 26.7452 42.6531 26.9884C42.6806 27.4879 42.812 28.0312 42.5817 28.5031C41.6589 28.6653 40.7151 28.6475 39.7809 28.6734C36.5358 28.6767 33.289 28.6702 30.0439 28.6751C28.9865 28.6621 27.9129 28.688 26.8831 28.4091C26.3593 27.0436 26.5701 25.5597 26.5312 24.1341C26.489 22.188 26.5863 20.2435 26.502 18.299C26.4501 16.7324 26.6139 15.1658 26.5328 13.5976C26.4598 12.138 26.5409 10.6784 26.5004 9.21882C26.4647 7.8614 26.4874 6.50562 26.549 5.14983C26.6252 3.67078 26.3933 2.16579 26.7906 0.715941Z" fill="white"></path>
  <path d="M91.6719 2.10337C92.113 0.565947 94.3008 -0.0454533 95.5074 0.976254L95.6728 1.02815C95.968 1.35574 96.3345 1.67036 96.4091 2.13256C96.7172 3.60512 96.5842 5.1166 96.6086 6.61024C96.5615 10.1246 96.7464 13.6357 96.6994 17.15C96.6751 18.7232 96.7626 20.3563 96.1755 21.8499C96.1626 21.905 96.1334 22.0153 96.1204 22.0705C95.5382 23.2268 94.9479 24.4107 94.0364 25.348C93.258 26.1573 92.4293 26.9406 91.4611 27.5196C90.5902 27.8974 89.6674 28.1488 88.769 28.4537C87.5073 28.8851 86.1417 28.7959 84.8524 28.5542C84.6351 28.4975 84.4194 28.4456 84.2037 28.3986C83.8242 28.2867 83.448 28.1748 83.0717 28.0612C82.8885 28.0045 82.7069 27.9493 82.5268 27.8974L82.5122 27.7742C82.4457 27.7726 82.3111 27.7726 82.2447 27.7709C81.9868 27.6363 81.7289 27.5066 81.4711 27.3785C81.4257 27.3363 81.3348 27.2503 81.2911 27.2066C80.7413 26.8725 80.2418 26.467 79.7488 26.0584C79.152 25.6286 78.7644 24.9929 78.2762 24.4577C78.2843 24.3944 78.3005 24.2696 78.3086 24.2063C78.247 24.2079 78.127 24.2112 78.067 24.2128C77.9519 24.0101 77.8399 23.8122 77.7264 23.6144C77.5659 23.3079 77.4118 22.9997 77.2626 22.69C76.8977 21.7948 76.6771 20.7909 76.9561 19.8405C77.4005 18.5902 78.8568 17.849 80.1266 18.2739C80.8353 18.5366 81.3948 19.0978 81.7581 19.7513C82.123 21.0114 83.0636 22.0023 84.1048 22.7483C85.2936 23.3435 86.6866 23.2916 87.9759 23.1538C87.65 23.1343 87.324 23.1311 87.0013 23.1165L86.9996 23.0143C87.3727 23.0224 87.7456 23.0532 88.1203 23.0743C88.5354 22.857 88.9474 22.63 89.3496 22.3883C89.7923 21.9764 90.2399 21.5564 90.5594 21.0358C90.6016 21.0033 90.6875 20.9385 90.7313 20.906C91.1108 20.0822 91.4984 19.2227 91.4676 18.2934C91.5276 14.6185 91.4822 10.942 91.4952 7.26705C91.5195 5.54636 91.4011 3.81108 91.6719 2.10337Z" fill="white"></path>
  <path d="M123.054 2.18462C123.432 1.38347 124.094 0.437984 125.094 0.520694C125.615 0.522316 126.168 0.468799 126.659 0.684493C127.034 0.882348 127.305 1.22291 127.61 1.51159C127.636 1.7289 127.663 1.94946 127.692 2.17002C127.721 1.98027 127.781 1.60403 127.811 1.4159C128.137 2.63871 128.219 3.90854 128.193 5.17027C128.208 6.14333 128.12 7.13909 128.393 8.08944C128.589 8.14782 128.784 8.21107 128.982 8.27756C129.058 8.30026 129.21 8.34892 129.286 8.37162C129.455 8.42028 129.625 8.46568 129.797 8.51109C130.412 8.83545 130.78 9.4355 131.16 9.99176C131.177 10.5513 131.177 11.1108 131.156 11.6703C130.808 12.186 130.547 12.8136 129.948 13.0877C129.666 13.1785 129.389 13.2742 129.111 13.3699C128.815 13.5272 128.523 13.691 128.236 13.8597C128.163 16.9264 128.146 19.9964 128.227 23.0631C128.745 23.6761 129.514 24.0427 129.929 24.7481C130.417 25.4812 130.311 26.4477 130.021 27.2359C129.561 27.7792 129.058 28.3614 128.343 28.5495C127.52 28.6809 126.667 28.6436 125.874 28.389C125.673 28.2673 125.474 28.1506 125.273 28.0371C124.215 27.3721 123.327 26.3537 123.041 25.1163C122.647 23.6259 122.752 22.0755 122.761 20.5543C122.775 19.1498 122.761 17.747 122.764 16.3442C122.749 15.5625 122.775 14.7613 122.514 14.0137C122.388 13.644 121.971 13.5207 121.682 13.3147C121.646 13.3261 121.572 13.352 121.536 13.365C120.759 13.0244 119.974 12.499 119.689 11.6605C119.575 10.9762 119.642 10.2739 119.832 9.60903C120.21 9.22629 120.539 8.74463 121.066 8.55326C121.546 8.37325 122.047 8.24675 122.54 8.09917C123.062 6.16441 122.422 4.09829 123.054 2.18462Z" fill="white"></path>
  <path d="M105.468 8.58026C107.5 8.21374 109.631 8.17969 111.629 8.75541C111.869 8.84461 112.111 8.93381 112.354 9.01976L112.353 9.07652C112.771 9.27924 113.186 9.48845 113.608 9.69116C113.632 9.73657 113.683 9.8274 113.709 9.87118C114.067 10.0853 114.419 10.3091 114.781 10.5199C114.777 10.5831 114.771 10.7113 114.768 10.7745C114.852 10.7648 115.021 10.7421 115.105 10.7323C115.105 10.8199 115.105 10.9967 115.105 11.0859L115.441 11.0697L115.429 11.4167C115.507 11.4086 115.666 11.394 115.745 11.3859C115.749 11.4573 115.754 11.6 115.755 11.6697C115.947 11.8757 116.14 12.0816 116.333 12.2876C116.678 12.8033 117.014 13.3255 117.335 13.8558C117.44 14.2597 117.549 14.6635 117.661 15.0673C117.904 16.2609 118.246 17.4983 117.933 18.713C117.818 19.2271 117.435 19.6017 117.085 19.9666C116.409 20.1645 115.726 20.3591 115.016 20.3607C112.697 20.4629 110.374 20.3883 108.055 20.4061C106.685 20.4159 105.261 20.231 103.946 20.7175C104.023 20.7353 104.182 20.7743 104.26 20.7937C104.252 20.8716 104.234 21.0256 104.226 21.1035C104.589 21.6695 105.042 22.1868 105.631 22.5274C105.663 22.5695 105.726 22.6523 105.759 22.6928C107.089 23.6107 108.772 23.7518 110.329 23.4858C110.536 23.4112 110.747 23.3399 110.96 23.2685C111.016 23.2539 111.13 23.2231 111.187 23.2085C111.831 22.8015 112.513 22.4609 113.193 22.1187C113.756 22.1284 114.352 22.0149 114.886 22.2517C115.327 22.4139 115.609 22.8063 115.921 23.1372C116.07 23.9075 116.201 24.7476 115.887 25.4952C115.569 25.9931 115.081 26.3482 114.631 26.718C114.192 27.0375 113.739 27.3408 113.28 27.6294C113.212 27.6213 113.076 27.6051 113.01 27.597L112.995 27.7397C112.804 27.7851 112.616 27.8338 112.429 27.8857C112.265 27.9505 112.101 28.017 111.941 28.0868C111.863 28.0981 111.707 28.1208 111.629 28.1322C110.144 28.7825 108.487 28.6803 106.91 28.5636C106.583 28.4809 106.255 28.4111 105.929 28.3381C105.708 28.27 105.493 28.2052 105.277 28.1354C105.199 28.1241 105.045 28.0997 104.967 28.0884C104.422 27.8841 103.887 27.657 103.378 27.3797C103.178 27.2662 102.976 27.1543 102.778 27.0472C102.776 27.0148 102.775 26.9483 102.775 26.9142C102.061 26.5445 101.558 25.9039 100.988 25.359C100.631 25.0216 100.31 24.647 100.079 24.2124C100.049 24.214 99.9885 24.2172 99.9593 24.2189C99.6414 23.5718 99.236 22.9669 98.9895 22.2857L98.9295 22.2744C98.7543 21.7116 98.5873 21.1456 98.4365 20.5748C98.1316 18.8979 98.177 17.161 98.6603 15.5198C98.7706 15.1987 98.8841 14.8776 99.0008 14.5597C99.1046 14.3343 99.2101 14.1105 99.3187 13.8883C99.7923 12.9866 100.407 12.1757 101.051 11.3891C101.591 10.7713 102.199 10.1907 102.953 9.84523C102.945 9.79172 102.929 9.6863 102.919 9.6344C103.052 9.62629 103.315 9.6117 103.448 9.60521C103.443 9.54845 103.436 9.43331 103.433 9.37654C104.108 9.10409 104.74 8.70189 105.468 8.58026ZM105.629 13.7991C104.949 14.2532 104.304 14.7884 103.908 15.5198C103.929 15.6138 103.97 15.8036 103.991 15.8976C105.939 16.0193 107.893 15.9528 109.844 15.9674C110.841 15.9512 111.865 16.0663 112.83 15.7501C112.781 14.8694 111.902 14.5094 111.284 14.065C111.253 14.0196 111.19 13.9288 111.159 13.8834C109.513 12.8731 107.299 12.8001 105.629 13.7991Z" fill="white"></path>
</svg>
