<?xml version="1.0" encoding="UTF-8"?>
<svg xmlns="http://www.w3.org/2000/svg" width="261" height="33" viewBox="0 0 261 33" fill="none">
  <path d="M62.8897 0.819111C64.753 -0.145884 67.2973 1.16304 67.511 3.26332C67.7581 4.91616 66.3791 6.54229 64.7363 6.6625C63.0701 7.00309 61.2402 5.69417 61.1267 3.98122C60.9397 2.68566 61.7044 1.3567 62.8897 0.819111Z" fill="white"></path>
  <path d="M53.1938 28.6422C53.1938 19.3762 53.1805 10.1136 53.2005 0.850996C54.8667 0.861013 56.5329 0.857673 58.1991 0.847656C58.2091 10.1203 58.2091 19.3896 58.1991 28.6622C56.5296 28.6522 54.8634 28.6756 53.1938 28.6422Z" fill="white"></path>
  <path d="M90.7897 0.866795C92.4559 0.846761 94.1221 0.860118 95.7883 0.856779C95.805 6.62003 95.7683 12.3799 95.8084 18.1399C97.9754 15.4886 100.203 12.8842 102.426 10.2797C104.376 10.3364 106.33 10.2797 108.28 10.3231C106.019 13.0311 103.712 15.699 101.435 18.3936C103.849 21.8629 106.42 25.2221 108.868 28.668C106.964 28.648 105.061 28.6546 103.161 28.6546C100.717 25.2755 98.2559 21.913 95.8084 18.5372C95.7716 21.9064 95.795 25.2788 95.7983 28.648C94.1255 28.658 92.4492 28.6546 90.7764 28.6546C90.7931 19.392 90.773 10.1294 90.7897 0.866795Z" fill="white"></path>
  <path d="M110.202 0.855469C111.858 0.858808 113.518 0.855469 115.174 0.858809C115.177 4.58189 115.181 8.3083 115.171 12.0347C116.904 10.2917 119.461 9.63726 121.859 9.97116C124.951 10.2516 127.609 12.5256 128.794 15.3337C129.626 17.3806 129.742 19.6712 129.355 21.8316C128.771 24.9002 126.554 27.715 123.532 28.67C120.523 29.6283 116.813 29.0841 114.78 26.4863C114.78 27.2075 114.787 27.9321 114.793 28.6533C113.261 28.66 111.725 28.6633 110.192 28.6433C110.192 19.3807 110.172 10.1181 110.202 0.855469ZM117.662 14.8729C116.239 15.5608 115.274 17.04 115.171 18.6127C115.02 20.1787 115.187 21.9651 116.356 23.1405C117.802 24.7299 120.353 24.9403 122.189 23.9319C124.724 22.3992 125.205 18.6027 123.505 16.2854C122.256 14.4489 119.612 13.9413 117.662 14.8729Z" fill="white"></path>
  <path d="M160.958 0.855469C162.614 0.858808 164.27 0.855469 165.926 0.858809C165.933 10.1214 165.946 19.3874 165.92 28.6533C164.263 28.66 162.607 28.6633 160.951 28.6433C160.944 19.3807 160.924 10.1181 160.958 0.855469Z" fill="white"></path>
  <path d="M182.906 0.854902C184.569 0.851563 186.229 0.854902 187.892 0.851562C187.922 10.1142 187.912 19.3801 187.898 28.6427C186.369 28.6494 184.843 28.6594 183.317 28.6528C183.317 27.9482 183.314 27.2437 183.31 26.5425C180.472 29.9684 174.782 29.8615 171.614 26.9632C167.31 23.1032 167.46 15.3064 172.031 11.7103C175.096 9.22598 180.035 9.21596 182.92 12.0074C182.893 8.29104 182.91 4.5713 182.906 0.854902ZM176.679 14.6987C173.19 15.8741 172.575 21.0397 175.18 23.3937C177.29 25.3237 181.18 24.7661 182.432 22.1115C183.391 19.9311 183.177 16.9259 181.183 15.3832C179.961 14.3515 178.155 14.1912 176.679 14.6987Z" fill="white"></path>
  <path d="M75.0165 11.9498C77.7178 9.34195 82.5862 9.08484 85.3142 11.7661C86.6933 13.1351 87.2576 15.0985 87.291 16.9985C87.321 20.8818 87.2843 24.7618 87.3043 28.6452C85.6481 28.6652 83.9886 28.6585 82.3291 28.6485C82.3057 24.9722 82.3424 21.2925 82.3157 17.6162C82.299 15.9166 80.8198 14.3739 79.1035 14.3806C77.2804 14.2304 75.4639 15.6962 75.4639 17.5761C75.4239 21.2692 75.4506 24.9588 75.4539 28.6519C73.781 28.6585 72.1115 28.6552 70.4419 28.6619C70.4286 22.5447 70.4353 16.4275 70.4353 10.3103C71.9712 10.3303 73.5072 10.3003 75.0465 10.317C75.0365 10.8612 75.0265 11.4055 75.0165 11.9498Z" fill="white"></path>
  <path d="M195.398 11.0443C199.118 8.96736 204.46 9.63852 207.038 13.208C208.811 15.4318 209.015 18.4704 208.437 21.1617C204.113 21.1817 199.789 21.155 195.468 21.175C195.926 22.4506 196.684 23.7395 198.002 24.2637C200.597 25.4224 203.636 24.611 205.836 22.9781C206.494 24.1235 207.198 25.242 207.879 26.3707C205.763 28.1237 203.061 29.1989 200.293 29.092C196.987 29.1788 193.715 27.4425 191.935 24.6577C190.436 22.4239 190.179 19.5456 190.77 16.9678C191.384 14.4535 193.191 12.3365 195.398 11.0443ZM195.505 17.6523C198.313 17.659 201.121 17.6523 203.929 17.6523C203.876 15.4686 201.782 13.6821 199.619 13.9559C197.545 13.9693 195.956 15.739 195.505 17.6523Z" fill="white"></path>
  <path d="M61.8057 10.3191C63.4785 10.2991 65.1548 10.3058 66.8276 10.3058C66.8143 16.423 66.8176 22.5402 66.8243 28.6574C65.1548 28.644 63.4852 28.664 61.819 28.6407C61.7923 22.5335 61.8224 16.4263 61.8057 10.3191Z" fill="white"></path>
  <path d="M131.968 10.3177C133.635 10.301 135.304 10.301 136.974 10.3177C136.96 13.7603 136.964 17.2062 136.96 20.6488C136.96 21.5337 137.084 22.4753 137.641 23.1999C138.917 24.8995 141.869 24.9863 143.151 23.2466C143.832 22.4285 143.886 21.3166 143.875 20.3049C143.842 16.9725 143.892 13.6401 143.869 10.3077C145.528 10.3077 147.188 10.2977 148.847 10.3143C148.857 13.8705 148.871 17.4266 148.851 20.9827C148.834 23.2266 147.912 25.4638 146.223 26.963C143.865 29.1768 140.219 29.6042 137.237 28.5658C134.77 27.7277 132.833 25.5573 132.245 23.0229C131.895 21.6973 131.972 20.3149 131.968 18.9592C131.968 16.0776 131.972 13.1993 131.968 10.3177Z" fill="white"></path>
  <path d="M152.33 10.3292C153.99 10.3058 155.653 10.3225 157.319 10.3125C157.312 16.423 157.319 22.5302 157.316 28.6407C155.653 28.6641 153.993 28.6574 152.334 28.6441C152.31 22.5369 152.32 16.433 152.33 10.3292Z" fill="white"></path>
  <path d="M211.314 10.3093C212.84 10.306 214.369 10.2959 215.895 10.3293C215.892 11.0005 215.892 11.675 215.902 12.3461C217.564 10.5063 220.142 9.6682 222.57 10.2559C222.55 11.7518 222.596 13.2444 222.526 14.7403C220.77 14.6434 218.733 14.6969 217.451 16.0926C216.179 17.3715 216.276 19.3081 216.289 20.9743C216.296 23.5354 216.289 26.0965 216.292 28.6576C214.633 28.6542 212.973 28.6542 211.314 28.6542C211.294 22.5404 211.29 16.4232 211.314 10.3093Z" fill="white"></path>
  <path d="M153.917 0.635269C156.058 -0.0692773 158.559 2.01765 157.954 4.27153C157.5 6.79922 153.811 7.57054 152.291 5.55708C150.869 3.9443 151.797 1.06601 153.917 0.635269Z" fill="white"></path>
  <path d="M233.548 1.48157C234.767 0.115888 237.194 0.229417 238.323 1.66188C238.59 1.89228 238.757 2.30967 239.144 2.37979C239.107 3.1845 239.077 3.98922 239.031 4.79394C238.987 4.04599 238.947 3.30137 238.887 2.55342C238.777 3.35146 238.73 4.15952 238.837 4.96423C237.925 6.6104 235.715 7.24149 234.099 6.2431C232.459 5.31484 232.196 2.7571 233.548 1.48157Z" fill="white"></path>
  <path d="M247.909 10.2329C250.617 9.54176 253.672 9.7755 256.063 11.3115C258.741 13.0278 260.754 16.053 260.644 19.3153C260.818 22.1 259.475 24.8247 257.388 26.6212C253.552 30.1439 246.844 29.9269 243.441 25.8999C241.508 23.9132 240.66 21.0249 240.99 18.2968C241.351 14.527 244.359 11.3181 247.909 10.2329ZM248.87 14.8142C246.316 15.8994 245.491 19.1349 246.413 21.5792C247.084 23.1585 248.613 24.3907 250.363 24.4641C251.752 24.6344 253.165 24.0367 254.13 23.0517C255.812 21.4256 255.949 18.564 254.747 16.634C253.565 14.6706 250.944 13.9594 248.87 14.8142Z" fill="white"></path>
  <path d="M20.6146 6.25109C23.3393 3.82691 27.019 2.49796 30.6652 2.64822C35.4368 2.6382 39.9746 5.31281 42.6091 9.23623C42.519 9.42989 42.342 9.82056 42.2519 10.0142C40.7259 10.4183 39.3335 11.1562 38.2283 12.2948C37.6339 11.7205 36.9561 11.2397 36.1781 10.9425C35.1363 10.3314 34.2114 9.47997 33.0059 9.17946C29.7003 7.99742 25.7935 9.20283 23.6198 11.9275C21.7699 14.3016 19.9368 16.6857 18.1036 19.0732C17.4725 19.9547 16.3706 20.3988 15.3021 20.2585C13.4089 20.3086 12.0298 18.0781 12.6709 16.3618C13.272 15.0329 14.3605 13.9978 15.222 12.8391C17.0819 10.6954 18.4509 8.12765 20.6146 6.25109Z" fill="white"></path>
  <path d="M3.08386 8.73842C3.62813 7.98712 4.47625 7.58643 5.34775 7.35938C5.53808 7.82017 5.72173 8.28096 5.9154 8.74175C6.88373 9.35615 7.64504 10.2243 8.47981 11.0023C8.1793 12.1743 7.72852 13.313 7.02731 14.3047C7.41131 12.1009 5.03054 10.3946 3.00706 10.6283C2.09215 10.7686 1.44103 11.5199 1.21397 12.3814C1.08375 12.8188 0.966879 13.2629 0.836655 13.7003L0.729805 14.0609C0.172178 11.9105 1.88179 10.2644 3.08386 8.73842Z" fill="white"></path>
  <path d="M42.6098 9.23828C43.0205 9.94283 43.4412 10.6507 43.705 11.4287C43.5648 12.1266 43.3878 12.8211 43.2175 13.5123C41.5446 13.5257 39.8751 13.6626 38.2356 14.0065C37.7147 12.8812 36.9233 11.9262 36.1787 10.9446C36.9567 11.2417 37.6346 11.7226 38.2289 12.2969C39.3341 11.1582 40.7265 10.4203 42.2525 10.0163C42.3427 9.82262 42.5196 9.43195 42.6098 9.23828Z" fill="white"></path>
  <path d="M233.444 10.3676C235.097 10.3476 236.753 10.3576 238.41 10.3609C238.463 16.4414 238.406 22.5219 238.446 28.599C236.773 28.7927 235.094 28.6658 233.421 28.599C233.254 25.1664 233.504 21.7338 233.384 18.2979C233.531 15.6534 233.191 13.0088 233.444 10.3676Z" fill="white"></path>
  <path d="M1.21387 12.3799C1.44092 11.5185 2.09205 10.7672 3.00696 10.6269C5.03044 10.3932 7.4112 12.0994 7.02721 14.3032C5.84851 13.3149 4.3693 12.8407 2.94685 12.3298C2.38255 12.0994 1.78151 12.2764 1.21387 12.3799Z" fill="white"></path>
  <path d="M43.7057 11.4258C44.3669 12.5076 44.5305 13.7832 44.8677 14.9852C44.3168 15.4193 43.8226 16.0871 43.0446 16.0371C41.6856 16.1305 40.3166 16.2073 38.9576 16.1038L38.7038 15.9669C38.5602 15.3091 38.4033 14.6547 38.2363 14.0036C39.8758 13.6596 41.5454 13.5227 43.2182 13.5094C43.3885 12.8182 43.5655 12.1236 43.7057 11.4258Z" fill="white"></path>
  <path d="M1.21325 12.3817C1.7809 12.2782 2.38193 12.1012 2.94624 12.3316C4.36869 12.8425 5.8479 13.3167 7.02659 14.305C6.292 15.7976 6.57248 17.4805 6.5658 19.0766C6.50236 18.8428 6.37547 18.382 6.31203 18.1516C6.292 17.6074 6.30535 17.0631 6.30535 16.5222C6.22188 15.9746 6.46897 15.0764 5.7711 14.8627C4.32862 14.5521 2.78262 14.2483 1.3368 14.6957C1.16985 14.3618 1.00289 14.0312 0.835938 13.7007C0.966162 13.2632 1.08303 12.8191 1.21325 12.3817Z" fill="white"></path>
  <path d="M0.730861 14.0598L0.837712 13.6992C1.00467 14.0298 1.17162 14.3604 1.33857 14.6943C2.7844 14.2468 4.33039 14.5507 5.77287 14.8612C6.47074 15.0749 6.22365 15.9731 6.30713 16.5207C4.85129 16.1635 3.32533 16.0199 1.8361 16.2336C0.547211 16.7177 0.430343 18.2337 0.447039 19.4157C0.0597054 17.6527 0.193269 15.7761 0.730861 14.0598Z" fill="white"></path>
  <path d="M27.5162 15.1503C28.8585 13.6377 31.65 14.1119 32.438 15.9684C32.7719 17.0603 32.8187 18.4327 31.9906 19.3208C30.1574 21.705 28.3009 24.0724 26.4678 26.4565C24.4276 29.0209 21.5192 30.8974 18.3104 31.602C13.7125 32.7907 8.66043 31.3449 5.12768 28.2362L5.07426 28.0592C4.89394 27.0876 4.25618 26.3262 3.6084 25.6217C5.06758 24.2527 6.96084 23.2676 9.01437 23.468C11.0779 25.4347 14.1165 26.3296 16.9046 25.6484C18.8713 25.2277 20.601 24.0323 21.8364 22.4629C23.733 20.0287 25.5796 17.5545 27.5162 15.1503Z" fill="white"></path>
  <path d="M43.0441 16.0362C43.8221 16.0863 44.3163 15.4185 44.8672 14.9844C44.9607 16.1831 44.9507 17.3852 44.9407 18.5872C44.4098 18.8677 43.8855 19.1482 43.3546 19.4287C41.9756 18.7108 40.3394 19.1015 38.957 18.4236C38.9604 17.649 38.9871 16.8743 38.957 16.103C40.316 16.2065 41.6851 16.1297 43.0441 16.0362Z" fill="white"></path>
  <path d="M1.83672 16.2368C3.32595 16.0231 4.85191 16.1667 6.30775 16.524C6.30775 17.0649 6.2944 17.6092 6.31443 18.1535C5.00885 18.484 3.65652 18.5976 2.31755 18.4306C1.69648 18.8914 1.07875 19.3555 0.451004 19.8096L0.447664 19.419C0.430969 18.2369 0.547837 16.721 1.83672 16.2368Z" fill="white"></path>
  <path d="M38.7038 15.9727L38.9576 16.1096C38.9877 16.8809 38.9609 17.6556 38.9576 18.4302C39.0377 19.0947 38.9008 20.0096 39.6121 20.3802C41.1046 21.0948 42.7809 21.2952 44.4137 21.4287C44.1599 22.19 43.9228 22.9714 43.4921 23.6592C43.1582 23.8796 42.8176 24.09 42.477 24.3003C41.4085 23.7327 40.2331 23.3821 39.168 22.8078C38.6671 22.0364 38.5436 21.0915 38.4033 20.2033C38.607 18.8009 38.804 17.3918 38.7038 15.9727Z" fill="white"></path>
  <path d="M2.31674 18.4256C3.65571 18.5925 5.00804 18.479 6.31362 18.1484C6.37707 18.3788 6.50395 18.8396 6.56739 19.0734C6.79445 19.808 7.08829 20.5225 7.36877 21.2404C6.83786 21.0868 6.30694 20.9332 5.77269 20.7863C4.52054 21.9016 2.80425 22.0819 1.31836 22.733C0.961074 21.778 0.750713 20.7763 0.450195 19.8046C1.07794 19.3505 1.69567 18.8864 2.31674 18.4256Z" fill="white"></path>
  <path d="M38.957 18.4297C40.3394 19.1075 41.9756 18.7169 43.3546 19.4348C43.8855 19.1543 44.4098 18.8738 44.9407 18.5933C44.8171 19.5483 44.6168 20.4866 44.4131 21.4282C42.7803 21.2946 41.1041 21.0943 39.6115 20.3797C38.9003 20.0091 39.0372 19.0942 38.957 18.4297Z" fill="white"></path>
  <path d="M36.9625 23.0068C37.3531 22.0285 37.9074 21.1236 38.4016 20.1953C38.5418 21.0835 38.6654 22.0285 39.1663 22.7998C40.2314 23.3741 41.4068 23.7247 42.4753 24.2924C42.8159 24.082 43.1565 23.8716 43.4904 23.6513C43.1665 25.234 41.8509 26.3359 40.7022 27.361C39.9075 27.0404 39.0928 26.6498 38.7789 25.7849C38.7188 25.8951 38.5953 26.1155 38.5352 26.2257C37.9408 25.2006 36.7755 24.3258 36.9625 23.0068Z" fill="white"></path>
  <path d="M5.77367 20.793C6.30792 20.9399 6.83884 21.0935 7.36975 21.2471C7.81719 22.0585 8.35812 22.8165 9.01592 23.4709C6.96239 23.2706 5.06913 24.2556 3.60995 25.6246C4.25773 26.3292 4.89549 27.0905 5.0758 28.0622C3.31945 26.7198 2.25762 24.6964 1.31934 22.7397C2.80523 22.0885 4.52152 21.9082 5.77367 20.793Z" fill="white"></path>
  <path d="M226.213 22.3017C228.828 21.497 231.372 24.4854 230.26 26.9564C229.445 29.6777 225.158 29.8246 223.976 27.3303C222.867 25.4137 224.029 22.7291 226.213 22.3017Z" fill="white"></path>
</svg>
