<?xml version="1.0" encoding="UTF-8"?>
<svg xmlns="http://www.w3.org/2000/svg" width="228" height="43" viewBox="0 0 228 43" fill="none">
  <g clip-path="url(#clip0_1132_4810)">
    <path d="M34.7471 0.15625H17.7502C15.1713 1.38706 13.8233 3.67286 13.6475 7.01363H30.6444C33.2232 5.84143 34.5713 3.49703 34.7471 0.15625Z" fill="white"></path>
    <path d="M21.2676 17.6797H4.27068C1.69183 18.9105 0.343799 21.1963 0.167969 24.5371H17.1649C19.7437 23.3649 21.0918 21.0791 21.2676 17.6797Z" fill="white"></path>
    <path d="M34.2217 35.2617H17.2248C14.6459 36.4925 13.2979 38.7783 13.1221 42.1191H30.119C32.6978 40.9469 34.0459 38.6025 34.2217 35.2617Z" fill="white"></path>
    <path d="M40.6101 8.94922H10.7775C8.19867 10.18 6.85064 12.4658 6.6748 15.8066H36.5074C39.0862 14.6344 40.4342 12.29 40.6101 8.94922Z" fill="white"></path>
    <path d="M41.195 26.4727H11.3625C8.78363 27.7035 7.4356 29.9893 7.25977 33.33H37.0923C39.6712 32.1578 41.0192 29.872 41.195 26.4727Z" fill="white"></path>
    <path d="M60.4198 31.4548C57.5479 31.4548 55.1449 30.5171 53.2108 28.5829C51.2766 26.6488 50.3389 24.2458 50.3389 21.4325C50.3389 18.5606 51.2766 16.2162 53.2108 14.2821C55.1449 12.3479 57.5479 11.4102 60.4198 11.4102C62.2953 11.4102 63.9364 11.879 65.4603 12.7582C66.9841 13.6373 68.1563 14.8682 68.9183 16.3334L64.6983 18.795C64.3467 18.0331 63.7606 17.3884 62.94 16.9195C62.1781 16.4506 61.299 16.2162 60.3026 16.2162C58.8373 16.2162 57.6065 16.6851 56.6688 17.6814C55.731 18.6778 55.2035 19.9086 55.2035 21.4325C55.2035 22.9563 55.6724 24.1872 56.6688 25.1249C57.6065 26.1213 58.8373 26.5902 60.3026 26.5902C61.299 26.5902 62.1781 26.3557 62.94 25.9455C63.702 25.4766 64.2881 24.8905 64.6983 24.0699L68.9769 26.5316C68.1563 28.0554 66.9841 29.2276 65.4603 30.1068C63.9364 30.9859 62.2367 31.4548 60.4198 31.4548Z" fill="white"></path>
    <path d="M86.5595 28.5243C84.6254 30.4585 82.2223 31.4549 79.4091 31.4549C76.5958 31.4549 74.1928 30.4585 72.2586 28.5243C70.3245 26.5902 69.3281 24.1872 69.3281 21.3739C69.3281 18.5606 70.3245 16.1576 72.2586 14.2235C74.1928 12.2893 76.5958 11.293 79.4091 11.293C82.2223 11.293 84.6254 12.2893 86.5595 14.2235C88.4936 16.1576 89.49 18.5606 89.49 21.3739C89.49 24.1872 88.5522 26.5902 86.5595 28.5243ZM75.7166 25.125C76.713 26.1213 77.9438 26.5902 79.4091 26.5902C80.8743 26.5902 82.1051 26.1213 83.1015 25.125C84.0979 24.1286 84.5668 22.8978 84.5668 21.3739C84.5668 19.85 84.0979 18.6192 83.1015 17.6229C82.1051 16.6265 80.8743 16.1576 79.4091 16.1576C77.9438 16.1576 76.713 16.6265 75.7166 17.6229C74.7203 18.6192 74.2514 19.85 74.2514 21.3739C74.2514 22.8978 74.7789 24.1286 75.7166 25.125Z" fill="white"></path>
    <path d="M103.089 11.293C105.668 11.293 107.836 12.2893 109.653 14.2235C111.47 16.1576 112.349 18.5606 112.349 21.3739C112.349 24.1872 111.47 26.5902 109.653 28.5243C107.836 30.4585 105.668 31.4548 103.089 31.4548C100.452 31.4548 98.3416 30.5171 96.935 28.7002V38.5467H92.0117V11.8791H96.935V14.1063C98.4002 12.2307 100.452 11.293 103.089 11.293ZM98.4588 25.2422C99.4552 26.2385 100.686 26.766 102.21 26.766C103.734 26.766 105.023 26.2385 106.02 25.2422C107.016 24.2458 107.543 22.9564 107.543 21.3739C107.543 19.7914 107.016 18.502 106.02 17.5056C105.023 16.5093 103.734 15.9818 102.21 15.9818C100.686 15.9818 99.4552 16.5093 98.4588 17.5056C97.4625 18.502 96.9936 19.7914 96.9936 21.3739C96.935 22.9564 97.4625 24.2458 98.4588 25.2422Z" fill="white"></path>
    <path d="M126.59 11.8789H131.865L124.949 30.9272C123.953 33.6819 122.663 35.6746 121.022 36.9054C119.381 38.1362 117.33 38.6637 114.927 38.5465V33.9749C116.275 33.9749 117.271 33.7405 118.092 33.1544C118.853 32.5683 119.498 31.6305 119.967 30.3411L112.055 11.8789H117.447L122.37 24.6559L126.59 11.8789Z" fill="white"></path>
    <path d="M154.253 11.293C156.422 11.293 158.18 11.9963 159.47 13.4029C160.759 14.8096 161.404 16.7437 161.404 19.1467V30.8687H156.481V19.4984C156.481 18.3262 156.188 17.447 155.66 16.8023C155.074 16.1576 154.312 15.8646 153.316 15.8646C152.202 15.8646 151.323 16.2162 150.678 16.9782C150.033 17.7401 149.74 18.7951 149.74 20.2017V30.9274H144.934V19.4984C144.934 18.3262 144.641 17.447 144.114 16.8023C143.528 16.1576 142.766 15.8646 141.769 15.8646C140.656 15.8646 139.835 16.2162 139.132 16.9782C138.487 17.7401 138.136 18.7951 138.136 20.2017V30.9274H133.212V11.8791H138.136V13.8718C139.308 12.1721 141.066 11.293 143.411 11.293C145.755 11.293 147.455 12.2307 148.568 14.0476C149.858 12.2307 151.792 11.293 154.253 11.293Z" fill="white"></path>
    <path d="M179.163 11.8791H184.087V30.9274H179.163V28.7002C177.698 30.5757 175.647 31.4549 172.951 31.4549C170.431 31.4549 168.262 30.4585 166.445 28.5243C164.628 26.5902 163.749 24.1872 163.749 21.3739C163.749 18.5606 164.628 16.1576 166.445 14.2235C168.262 12.2893 170.431 11.293 172.951 11.293C175.588 11.293 177.698 12.2307 179.163 14.0476V11.8791ZM170.138 25.2422C171.134 26.2386 172.365 26.766 173.889 26.766C175.412 26.766 176.702 26.2386 177.698 25.2422C178.695 24.2458 179.222 22.9564 179.222 21.3739C179.222 19.7914 178.695 18.502 177.698 17.5056C176.702 16.5093 175.412 15.9818 173.889 15.9818C172.365 15.9818 171.134 16.5093 170.138 17.5056C169.141 18.502 168.672 19.7914 168.672 21.3739C168.614 22.9564 169.141 24.2458 170.138 25.2422Z" fill="white"></path>
    <path d="M198.506 16.5653H194.227V24.4777C194.227 25.1224 194.403 25.6499 194.696 25.9429C195.048 26.236 195.517 26.4118 196.162 26.4704C196.806 26.529 197.568 26.529 198.506 26.4704V30.9248C195.107 31.335 192.762 30.9834 191.356 29.987C189.949 28.9906 189.304 27.1737 189.304 24.5363V16.5653H185.963V11.8765H189.304V8.00822L194.227 6.54297V11.8765H198.506V16.5653Z" fill="white"></path>
    <path d="M203.487 9.59153C202.666 9.59153 201.963 9.29848 201.377 8.71238C200.791 8.12628 200.498 7.42296 200.498 6.60241C200.498 5.78187 200.791 5.07855 201.377 4.49245C201.963 3.90635 202.666 3.55469 203.487 3.55469C204.307 3.55469 205.069 3.84774 205.655 4.49245C206.241 5.07855 206.534 5.84048 206.534 6.60241C206.534 7.42296 206.241 8.12628 205.655 8.71238C205.011 9.23987 204.307 9.59153 203.487 9.59153ZM201.025 30.9256V11.8773H205.948V30.9256H201.025Z" fill="white"></path>
    <path d="M218.549 31.4548C215.677 31.4548 213.274 30.5171 211.34 28.5829C209.406 26.6488 208.468 24.2458 208.468 21.4325C208.468 18.5606 209.406 16.2162 211.34 14.2821C213.274 12.3479 215.677 11.4102 218.549 11.4102C220.424 11.4102 222.065 11.879 223.589 12.7582C225.113 13.6373 226.285 14.8682 227.047 16.3334L222.827 18.795C222.417 18.0331 221.889 17.3884 221.069 16.9195C220.307 16.4506 219.428 16.2162 218.431 16.2162C216.966 16.2162 215.735 16.6851 214.798 17.6814C213.86 18.6778 213.332 19.9086 213.332 21.4325C213.332 22.9563 213.801 24.1872 214.798 25.1249C215.735 26.1213 216.966 26.5902 218.431 26.5902C219.428 26.5902 220.307 26.3557 221.069 25.9455C221.831 25.4766 222.417 24.8905 222.827 24.0699L227.106 26.5316C226.285 28.0554 225.113 29.2276 223.589 30.1068C222.065 30.9859 220.424 31.4548 218.549 31.4548Z" fill="white"></path>
  </g>
  <defs>
    <clipPath id="clip0_1132_4810">
      <rect width="226.997" height="41.9648" fill="white" transform="translate(0.167969 0.15625)"></rect>
    </clipPath>
  </defs>
</svg>
