<?xml version="1.0" encoding="UTF-8"?>
<svg xmlns="http://www.w3.org/2000/svg" width="173" height="51" viewBox="0 0 173 51" fill="none">
  <g id="Group 1077">
    <path id="Vector" d="M25.7232 0.195312C11.9415 0.195312 0.726562 11.4102 0.726562 25.1987C0.726562 38.9871 11.9415 50.1953 25.7232 50.1953C39.505 50.1953 50.7198 38.9804 50.7198 25.1987C50.7198 11.4169 39.5117 0.195312 25.7232 0.195312ZM25.7232 48.3743C12.9427 48.3743 2.54755 37.9792 2.54755 25.1987C2.54755 12.4181 12.9494 2.0163 25.7232 2.0163C38.497 2.0163 48.8988 12.4114 48.8988 25.192C48.8988 37.9725 38.5037 48.3676 25.7232 48.3676" fill="white"></path>
    <path id="Subtract" fill-rule="evenodd" clip-rule="evenodd" d="M37.1392 30.6165C40.8539 30.6165 43.8703 27.6079 43.8721 23.8869C43.8721 23.888 43.8721 23.8891 43.8721 23.8902V23.8835C43.8721 23.8846 43.8721 23.8858 43.8721 23.8869C43.8708 21.2274 42.3257 18.9308 40.0958 17.8359C39.8001 19.153 39.2155 20.3625 38.4092 21.3838C37.3811 22.6942 35.9901 23.7088 34.3842 24.2732C33.4636 24.5958 32.4624 24.7772 31.4276 24.7772C31.0983 24.7772 30.7758 24.7571 30.46 24.7235C30.8699 28.0496 33.7055 30.6165 37.1392 30.6165ZM37.1063 26.5703C38.6249 26.5703 39.8613 25.3339 39.8613 23.8086C39.8613 22.7603 39.2767 21.8465 38.4166 21.3828C37.3885 22.6931 35.9976 23.7078 34.3916 24.2722C34.6066 25.5758 35.7422 26.5703 37.1063 26.5703Z" fill="white"></path>
    <path id="Subtract_2" fill-rule="evenodd" clip-rule="evenodd" d="M14.5826 30.6165C10.8678 30.6165 7.85143 27.6079 7.84961 23.8869C7.85091 21.2274 9.39604 18.9308 11.626 17.8359C11.9216 19.153 12.5062 20.3625 13.3126 21.3838C14.3407 22.6942 15.7316 23.7088 17.3376 24.2732C18.2582 24.5958 19.2594 24.7772 20.2942 24.7772C20.6234 24.7772 20.946 24.7571 21.2618 24.7235C20.8519 28.0496 18.0163 30.6165 14.5826 30.6165ZM7.84961 23.8869C7.84961 23.8858 7.84961 23.8846 7.84961 23.8835V23.8902C7.84961 23.8891 7.84961 23.888 7.84961 23.8869ZM14.6154 26.5703C13.0967 26.5703 11.8604 25.3339 11.8604 23.8086C11.8604 22.7603 12.445 21.8465 13.305 21.3828C14.3331 22.6931 15.7241 23.7078 17.33 24.2722C17.115 25.5758 15.9794 26.5703 14.6154 26.5703Z" fill="white"></path>
    <path id="Vector_2" d="M30.1169 37.4059C29.996 37.4059 29.875 37.3925 29.7608 37.3589C25.2721 36.1427 22.1812 37.2447 22.1543 37.2581C21.4487 37.5202 20.6625 37.164 20.4005 36.4585C20.1384 35.7529 20.4878 34.9735 21.1867 34.7047C21.3412 34.6442 25.084 33.26 30.4798 34.7248C31.2055 34.9197 31.6355 35.6723 31.4407 36.4047C31.2727 37.0162 30.7217 37.4127 30.1236 37.4127" fill="white"></path>
    <path id="Vector_3" d="M74.8169 11.1836V15.1884H70.214V39.2107H65.806V15.1884H61.2031V11.1836H74.8169Z" fill="white"></path>
    <path id="Vector_4" d="M77.2549 39.2107V11.1836H81.6629V23.1981H86.6689V11.1836H91.1509V39.2107H86.6689V27.2029H81.6629V39.2107H77.2549Z" fill="white"></path>
    <path id="Vector_5" d="M105.323 22.9965V27.0014H99.282V35.2059H106.889V39.2107H94.874V11.1836H106.889V15.1884H99.282V22.9965H105.323Z" fill="white"></path>
    <path id="Vector_6" d="M110.127 39.2107V11.1836H114.535V23.1981H119.541V11.1836H124.023V39.2107H119.541V27.2029H114.535V39.2107H110.127Z" fill="white"></path>
    <path id="Vector_7" d="M134.076 35.5279C135.594 35.5279 136.36 34.6073 136.36 32.7661V17.6338C136.36 15.7926 135.601 14.872 134.076 14.872C132.55 14.872 131.791 15.7926 131.791 17.6338V32.7661C131.791 34.6073 132.55 35.5279 134.076 35.5279ZM129.11 12.7083C130.259 11.4787 131.912 10.8672 134.076 10.8672C136.239 10.8672 137.892 11.4787 139.041 12.7083C140.19 13.938 140.762 15.6716 140.762 17.916V32.4906C140.762 34.7349 140.19 36.4686 139.041 37.6983C137.892 38.9279 136.239 39.5394 134.076 39.5394C131.912 39.5394 130.259 38.9279 129.11 37.6983C127.961 36.4686 127.39 34.7349 127.39 32.4906V17.916C127.39 15.6716 127.961 13.938 129.11 12.7083Z" fill="white"></path>
    <path id="Vector_8" d="M156.451 11.1836V15.1884H151.848V39.2107H147.447V15.1884H142.837V11.1836H156.451Z" fill="white"></path>
    <path id="Vector_9" d="M158.897 39.2107V11.1836H163.299V23.1981H168.305V11.1836H172.793V39.2107H168.305V27.2029H163.299V39.2107H158.897Z" fill="white"></path>
  </g>
</svg>
